#tb 0: 1/15
#media_type 0: video
#codec_id 0: rawvideo
#dimensions 0: 320x240
#sar 0: 0/1
0,          0,          0,        1,   115200, 0x03fbd838
0,          3,          3,        1,   115200, 0x8911d86f
0,          4,          4,        1,   115200, 0x7c5dd82e
0,          5,          5,        1,   115200, 0x7c5ed82e
0,         30,         30,        1,   115200, 0x03fbd838
0,         31,         31,        1,   115200, 0x37c879b2
0,         32,         32,        1,   115200, 0xd5994bfc
0,         33,         33,        1,   115200, 0x4b662e3e
0,         34,         34,        1,   115200, 0x2f1925ea
0,         35,         35,        1,   115200, 0xc5912db0
0,         36,         36,        1,   115200, 0x76c4421f
0,         37,         37,        1,   115200, 0x5cc8848b
0,         38,         38,        1,   115200, 0x75e63425
0,         39,         39,        1,   115200, 0x1a29b620
0,         40,         40,        1,   115200, 0x60c64de9
0,         41,         41,        1,   115200, 0xc7ac7783
0,         42,         42,        1,   115200, 0xb056c3ee
0,         43,         43,        1,   115200, 0xa57d3030
0,         44,         44,        1,   115200, 0x2864797c
0,         45,         45,        1,   115200, 0xf9e557c9
0,         46,         46,        1,   115200, 0xbdcf6358
0,         47,         47,        1,   115200, 0xd55c7bb7
0,         48,         48,        1,   115200, 0x78d171e7
0,         49,         49,        1,   115200, 0x28715816
0,         50,         50,        1,   115200, 0x58740b8a
0,         51,         51,        1,   115200, 0x86c10f18
0,         52,         52,        1,   115200, 0x903918f9
0,         53,         53,        1,   115200, 0x7f742394
0,         54,         54,        1,   115200, 0xd3a91d44
0,         55,         55,        1,   115200, 0x24452563
0,         56,         56,        1,   115200, 0x1b0c320e
0,         57,         57,        1,   115200, 0x3a493c8e
0,         58,         58,        1,   115200, 0xebe445ec
0,         59,         59,        1,   115200, 0xd2c54c8c
0,         60,         60,        1,   115200, 0x4aa15593
0,         61,         61,        1,   115200, 0x19a35cc1
0,         62,         62,        1,   115200, 0x968c6ee7
0,         63,         63,        1,   115200, 0x9f7c7808
0,         64,         64,        1,   115200, 0xa23980ee
0,         65,         65,        1,   115200, 0xcf3089c3
0,         66,         66,        1,   115200, 0x43f78d5c
0,         67,         67,        1,   115200, 0x43caa1d4
0,         68,         68,        1,   115200, 0x025594c3
0,         69,         69,        1,   115200, 0x5ec8a11c
0,         70,         70,        1,   115200, 0x7f2a959b
0,         71,         71,        1,   115200, 0xc602852d
0,         72,         72,        1,   115200, 0x67737ef5
0,         73,         73,        1,   115200, 0x81e06efe
0,         74,         74,        1,   115200, 0xdb0a484f
0,         75,         75,        1,   115200, 0xf30e4418
0,         76,         76,        1,   115200, 0xbdd1310d
0,         77,         77,        1,   115200, 0x0d2a58ca
0,         78,         78,        1,   115200, 0xa428b4ba
0,         79,         79,        1,   115200, 0x4b850596
0,         80,         80,        1,   115200, 0x38d3ecc0
0,         81,         81,        1,   115200, 0x6bb0ed23
0,         82,         82,        1,   115200, 0xb56eedaf
0,         83,         83,        1,   115200, 0xde81f828
0,         84,         84,        1,   115200, 0x334abf89
0,         85,         85,        1,   115200, 0x8e8ebd78
0,         86,         86,        1,   115200, 0x96ba99c8
0,         87,         87,        1,   115200, 0x2c8e0abd
0,         88,         88,        1,   115200, 0xe1ab8f9f
0,         89,         89,        1,   115200, 0xb2f95da4
0,         90,         90,        1,   115200, 0x2e536d62
0,         91,         91,        1,   115200, 0xdd78f3ab
0,         92,         92,        1,   115200, 0xea1cdaaa
0,         93,         93,        1,   115200, 0x4e653cc0
0,         94,         94,        1,   115200, 0x95e38123
0,         95,         95,        1,   115200, 0x20964119
0,         96,         96,        1,   115200, 0xcd08ea74
0,         97,         97,        1,   115200, 0x0eee2a96
0,         98,         98,        1,   115200, 0x966662c9
0,         99,         99,        1,   115200, 0x975893b4
0,        100,        100,        1,   115200, 0x0aa888a7
0,        101,        101,        1,   115200, 0x80dab966
0,        102,        102,        1,   115200, 0x78bb8f95
0,        103,        103,        1,   115200, 0x9c71d03f
0,        104,        104,        1,   115200, 0xbe5db887
0,        105,        105,        1,   115200, 0x125900d0
0,        106,        106,        1,   115200, 0x916408eb
0,        107,        107,        1,   115200, 0xe45b5f5a
0,        108,        108,        1,   115200, 0x94222dc4
0,        109,        109,        1,   115200, 0xba6018b4
0,        110,        110,        1,   115200, 0xe64b63f7
0,        111,        111,        1,   115200, 0x2a6ac35c
0,        112,        112,        1,   115200, 0xb899ed0d
0,        113,        113,        1,   115200, 0xefcc1111
0,        114,        114,        1,   115200, 0x67a57bbe
0,        115,        115,        1,   115200, 0x48877a83
0,        116,        116,        1,   115200, 0xf83d57ca
0,        117,        117,        1,   115200, 0x80a6625f
0,        118,        118,        1,   115200, 0x984f78e4
0,        119,        119,        1,   115200, 0xd0c7524d
0,        120,        120,        1,   115200, 0x60475044
0,        121,        121,        1,   115200, 0xce495653
0,        122,        122,        1,   115200, 0x05956238
0,        123,        123,        1,   115200, 0x1ede12ce
0,        124,        124,        1,   115200, 0x5ecfea25
0,        125,        125,        1,   115200, 0x533ff0cc
0,        126,        126,        1,   115200, 0x0900a711
0,        127,        127,        1,   115200, 0x0ff44124
0,        128,        128,        1,   115200, 0x96298cc0
0,        129,        129,        1,   115200, 0xd2a063ab
0,        130,        130,        1,   115200, 0xe9c63c2f
0,        131,        131,        1,   115200, 0x0991ceda
0,        132,        132,        1,   115200, 0x089aff4e
0,        133,        133,        1,   115200, 0xabe4af7e
0,        134,        134,        1,   115200, 0xd7ba5162
0,        135,        135,        1,   115200, 0xb3adfe6d
0,        136,        136,        1,   115200, 0xb04604c9
0,        137,        137,        1,   115200, 0xdef1da1b
0,        138,        138,        1,   115200, 0x25ffdc48
0,        139,        139,        1,   115200, 0x8b7ac975
0,        140,        140,        1,   115200, 0xaa21eb49
0,        141,        141,        1,   115200, 0x5ffc46cc
0,        142,        142,        1,   115200, 0x73616a99
0,        143,        143,        1,   115200, 0xabfad3f5
0,        144,        144,        1,   115200, 0x11d45466
0,        145,        145,        1,   115200, 0xc123788b
0,        146,        146,        1,   115200, 0xa58d01e0
0,        147,        147,        1,   115200, 0x72137847
0,        148,        148,        1,   115200, 0x25b9baa9
0,        149,        149,        1,   115200, 0x1d5bf9d6
0,        150,        150,        1,   115200, 0x6bab7161
0,        151,        151,        1,   115200, 0x59789be2
0,        152,        152,        1,   115200, 0x2784ff18
0,        153,        153,        1,   115200, 0x05901bec
0,        154,        154,        1,   115200, 0x5a8648be
0,        155,        155,        1,   115200, 0x048854c1
0,        156,        156,        1,   115200, 0x5d2b8c69
0,        157,        157,        1,   115200, 0x951d8fe6
0,        158,        158,        1,   115200, 0x5118ad8c
0,        159,        159,        1,   115200, 0x6d417bdd
0,        160,        160,        1,   115200, 0x59c590d3
0,        161,        161,        1,   115200, 0x7c826d1a
0,        162,        162,        1,   115200, 0xa87659cd
0,        163,        163,        1,   115200, 0xe0893b19
0,        164,        164,        1,   115200, 0x73531ead
0,        165,        165,        1,   115200, 0x7bdf0697
0,        166,        166,        1,   115200, 0xd3de0067
0,        167,        167,        1,   115200, 0xcf29c29b
0,        168,        168,        1,   115200, 0xda299edb
0,        169,        169,        1,   115200, 0x0e766935
0,        170,        170,        1,   115200, 0x29f34e91
0,        171,        171,        1,   115200, 0x85524e53
0,        172,        172,        1,   115200, 0x13796542
0,        173,        173,        1,   115200, 0x78bc5073
0,        174,        174,        1,   115200, 0xf4b05c51
0,        175,        175,        1,   115200, 0x12ac3079
0,        176,        176,        1,   115200, 0xf5bf3b45
0,        177,        177,        1,   115200, 0x1a9103a7
0,        178,        178,        1,   115200, 0x3b5904aa
0,        179,        179,        1,   115200, 0x5d4fce7c
0,        180,        180,        1,   115200, 0x3239a6fa
0,        181,        181,        1,   115200, 0xd7ffae3a
0,        182,        182,        1,   115200, 0xc687a51d
0,        183,        183,        1,   115200, 0xc5a5a871
0,        184,        184,        1,   115200, 0x40a4c09a
0,        185,        185,        1,   115200, 0xd905e0c1
0,        186,        186,        1,   115200, 0x0cea06c3
0,        187,        187,        1,   115200, 0x87961734
0,        188,        188,        1,   115200, 0x79bb502e
0,        189,        189,        1,   115200, 0x3a606c03
0,        190,        190,        1,   115200, 0x7eea99f7
0,        191,        191,        1,   115200, 0x8a13a800
0,        192,        192,        1,   115200, 0x4793c238
0,        193,        193,        1,   115200, 0xa305c503
0,        194,        194,        1,   115200, 0x5e4bdf82
0,        195,        195,        1,   115200, 0x0165e148
0,        196,        196,        1,   115200, 0x175afb1f
0,        197,        197,        1,   115200, 0xfb710b4e
0,        198,        198,        1,   115200, 0x8074299f
0,        199,        199,        1,   115200, 0xb9bd2576
0,        200,        200,        1,   115200, 0x0d135337
0,        201,        201,        1,   115200, 0xe53e706a
0,        202,        202,        1,   115200, 0x57627bd2
0,        203,        203,        1,   115200, 0xfa13a336
0,        204,        204,        1,   115200, 0x1c47d9c4
0,        205,        205,        1,   115200, 0x9f44e929
0,        206,        206,        1,   115200, 0xfd15ee4d
0,        207,        207,        1,   115200, 0x0a43e426
0,        208,        208,        1,   115200, 0x1413f2d1
0,        209,        209,        1,   115200, 0x89eadaa0
0,        210,        210,        1,   115200, 0x01b4f9c7
0,        211,        211,        1,   115200, 0x0883f7f9
0,        212,        212,        1,   115200, 0xd5f81739
0,        213,        213,        1,   115200, 0x637d40c8
0,        214,        214,        1,   115200, 0x211d5850
0,        215,        215,        1,   115200, 0xb0319873
0,        216,        216,        1,   115200, 0x90e9f518
0,        217,        217,        1,   115200, 0x70f40bd3
0,        218,        218,        1,   115200, 0x8f646061
0,        219,        219,        1,   115200, 0x1f50dc9d
0,        220,        220,        1,   115200, 0x3c810751
0,        221,        221,        1,   115200, 0x79e44c66
0,        222,        222,        1,   115200, 0x6c9fa6b6
0,        223,        223,        1,   115200, 0x9211bf3f
0,        224,        224,        1,   115200, 0xfbe70678
0,        225,        225,        1,   115200, 0xab9d1e8f
0,        226,        226,        1,   115200, 0xf54f31dc
0,        227,        227,        1,   115200, 0xe6963636
0,        228,        228,        1,   115200, 0x58ac3f43
0,        229,        229,        1,   115200, 0x4d382f03
0,        230,        230,        1,   115200, 0xaa663672
0,        231,        231,        1,   115200, 0xbbf559c8
0,        232,        232,        1,   115200, 0x6c567f1e
0,        233,        233,        1,   115200, 0x59817491
0,        234,        234,        1,   115200, 0xba715dc2
0,        235,        235,        1,   115200, 0x299f5882
0,        236,        236,        1,   115200, 0x139455d5
0,        237,        237,        1,   115200, 0x37e74fb1
0,        238,        238,        1,   115200, 0x4f005ddc
0,        239,        239,        1,   115200, 0xc90e8fcb
0,        240,        240,        1,   115200, 0x22e4a47a
0,        241,        241,        1,   115200, 0xa974b2d2
0,        242,        242,        1,   115200, 0xfab7de51
0,        243,        243,        1,   115200, 0xa9a7ef13
0,        244,        244,        1,   115200, 0x8ddd0464
0,        245,        245,        1,   115200, 0xd314232a
0,        246,        246,        1,   115200, 0x1fba5db0
0,        247,        247,        1,   115200, 0x52387e64
0,        248,        248,        1,   115200, 0xc58ed032
0,        249,        249,        1,   115200, 0xefabeb35
0,        250,        250,        1,   115200, 0x002315c1
0,        251,        251,        1,   115200, 0x124721f7
0,        252,        252,        1,   115200, 0xc24981e9
0,        253,        253,        1,   115200, 0xa1f795f0
0,        254,        254,        1,   115200, 0xc01fd535
0,        255,        255,        1,   115200, 0x8cdbe729
0,        256,        256,        1,   115200, 0x69eafd96
0,        257,        257,        1,   115200, 0xd9e40a03
0,        258,        258,        1,   115200, 0xb91423e1
0,        259,        259,        1,   115200, 0x09b516bd
0,        260,        260,        1,   115200, 0x20292b85
0,        261,        261,        1,   115200, 0x8cbb4aeb
0,        262,        262,        1,   115200, 0x99b761ec
0,        263,        263,        1,   115200, 0x28406a14
0,        264,        264,        1,   115200, 0xea368c86
0,        265,        265,        1,   115200, 0xf388ab54
0,        266,        266,        1,   115200, 0x263fe1de
0,        267,        267,        1,   115200, 0xc3410c39
0,        268,        268,        1,   115200, 0xc056244d
0,        269,        269,        1,   115200, 0x99c51fc5
0,        270,        270,        1,   115200, 0x7e4a0d07
0,        271,        271,        1,   115200, 0xcd911916
0,        272,        272,        1,   115200, 0x8bd0fa21
0,        273,        273,        1,   115200, 0xd1a1ab71
0,        274,        274,        1,   115200, 0xbc904028
0,        275,        275,        1,   115200, 0xfd480acc
0,        276,        276,        1,   115200, 0x1cb5c8b5
0,        277,        277,        1,   115200, 0xcad15709
0,        278,        278,        1,   115200, 0xdd306f19
0,        279,        279,        1,   115200, 0x3f975f1b
0,        280,        280,        1,   115200, 0x2386cd1f
0,        281,        281,        1,   115200, 0xcaa4f5b0
0,        282,        282,        1,   115200, 0x8ce213de
0,        283,        283,        1,   115200, 0x5f7407c6
0,        284,        284,        1,   115200, 0x01b3ee00
0,        285,        285,        1,   115200, 0x92759715
0,        286,        286,        1,   115200, 0x4a208e1e
0,        287,        287,        1,   115200, 0x6e1b80a5
0,        288,        288,        1,   115200, 0xe78c7622
0,        289,        289,        1,   115200, 0xcc255da9
0,        290,        290,        1,   115200, 0x69e561cb
0,        291,        291,        1,   115200, 0x2d135227
0,        292,        292,        1,   115200, 0xfc6a5e4d
0,        293,        293,        1,   115200, 0x81473914
0,        294,        294,        1,   115200, 0xe50831b2
0,        295,        295,        1,   115200, 0xe7d2228f
0,        296,        296,        1,   115200, 0xe6992f1a
0,        297,        297,        1,   115200, 0x1e533698
0,        298,        298,        1,   115200, 0x0c63558c
0,        299,        299,        1,   115200, 0x54990104
0,        300,        300,        1,   115200, 0xce14fc4d
0,        301,        301,        1,   115200, 0x760b5c6e
0,        302,        302,        1,   115200, 0x14157b61
0,        303,        303,        1,   115200, 0x62ca7972
0,        304,        304,        1,   115200, 0xe99573ce
0,        305,        305,        1,   115200, 0x36df4b8d
0,        306,        306,        1,   115200, 0x272238ea
0,        307,        307,        1,   115200, 0x606e3863
0,        308,        308,        1,   115200, 0x8b143873
0,        309,        309,        1,   115200, 0x2e46db9e
0,        310,        310,        1,   115200, 0x1131ad78
0,        311,        311,        1,   115200, 0x52f34951
0,        312,        312,        1,   115200, 0xd4590eea
0,        313,        313,        1,   115200, 0x44ddeaa2
0,        314,        314,        1,   115200, 0xbc83c399
0,        315,        315,        1,   115200, 0x5e9da9a7
0,        316,        316,        1,   115200, 0xca6a8dfc
0,        317,        317,        1,   115200, 0xe17b3ff8
0,        318,        318,        1,   115200, 0xea1f375c
0,        319,        319,        1,   115200, 0xa265143b
0,        320,        320,        1,   115200, 0xe788fa1e
0,        321,        321,        1,   115200, 0xd58be649
0,        322,        322,        1,   115200, 0x740c1f19
0,        323,        323,        1,   115200, 0xfab3302f
0,        324,        324,        1,   115200, 0x1c954fc7
0,        325,        325,        1,   115200, 0xd57a5923
0,        326,        326,        1,   115200, 0x099745d9
0,        327,        327,        1,   115200, 0x2e61cc66
0,        328,        328,        1,   115200, 0xdb3ec93a
0,        329,        329,        1,   115200, 0x553ba839
0,        330,        330,        1,   115200, 0xfafc6b60
0,        331,        331,        1,   115200, 0xa3fb39b6
0,        332,        332,        1,   115200, 0x7fb9d7be
0,        333,        333,        1,   115200, 0x7e73cd93
0,        334,        334,        1,   115200, 0xa43ec5f2
0,        335,        335,        1,   115200, 0x3ec077c1
0,        336,        336,        1,   115200, 0xc4275815
0,        337,        337,        1,   115200, 0xf84c17bf
0,        338,        338,        1,   115200, 0x1f54d44d
0,        339,        339,        1,   115200, 0x566fa5bb
0,        340,        340,        1,   115200, 0x82179a82
0,        341,        341,        1,   115200, 0xf8865f3d
0,        342,        342,        1,   115200, 0xa5fb7b80
0,        343,        343,        1,   115200, 0xf2a9c04d
0,        344,        344,        1,   115200, 0x2b4005ea
0,        345,        345,        1,   115200, 0xcec6ad14
0,        346,        346,        1,   115200, 0x1c040afc
0,        347,        347,        1,   115200, 0x164c4fd5
0,        348,        348,        1,   115200, 0x5bcc5385
0,        349,        349,        1,   115200, 0x7f7ed8d3
0,        350,        350,        1,   115200, 0x48ab3c54
0,        351,        351,        1,   115200, 0xd5debbfb
0,        352,        352,        1,   115200, 0x720ded36
0,        353,        353,        1,   115200, 0x3ae44a00
0,        354,        354,        1,   115200, 0xfa893d68
0,        355,        355,        1,   115200, 0xc833a619
0,        356,        356,        1,   115200, 0xa3583b05
0,        357,        357,        1,   115200, 0xffed4aed
0,        358,        358,        1,   115200, 0x3757904a
0,        359,        359,        1,   115200, 0x2f09122d
0,        360,        360,        1,   115200, 0xcc9f40d6
0,        361,        361,        1,   115200, 0xb8287bfb
0,        362,        362,        1,   115200, 0x5f62ff06
0,        363,        363,        1,   115200, 0x76b04f67
0,        364,        364,        1,   115200, 0xa9e6f352
0,        365,        365,        1,   115200, 0xc0e6001f
0,        366,        366,        1,   115200, 0x19bc6f22
0,        367,        367,        1,   115200, 0x0dbe3871
0,        368,        368,        1,   115200, 0x413c8035
0,        369,        369,        1,   115200, 0x8c28cc8d
0,        370,        370,        1,   115200, 0xdd7f0cda
0,        371,        371,        1,   115200, 0xf6f14c0c
0,        372,        372,        1,   115200, 0x23bbd27b
0,        373,        373,        1,   115200, 0xa8b8df03
0,        374,        374,        1,   115200, 0xadb14c5a
0,        375,        375,        1,   115200, 0xb5ca76f0
0,        376,        376,        1,   115200, 0xea38a095
0,        377,        377,        1,   115200, 0x60218deb
0,        378,        378,        1,   115200, 0x947e8c0f
0,        379,        379,        1,   115200, 0x6afe5ed1
0,        380,        380,        1,   115200, 0x139f4c22
0,        381,        381,        1,   115200, 0x5e4c3c2d
0,        382,        382,        1,   115200, 0x86df5833
0,        383,        383,        1,   115200, 0x824e538a
0,        384,        384,        1,   115200, 0xebf25d19
0,        385,        385,        1,   115200, 0x229438ae
0,        386,        386,        1,   115200, 0xde5e0494
0,        387,        387,        1,   115200, 0x63399194
0,        388,        388,        1,   115200, 0x1f048b80
0,        389,        389,        1,   115200, 0x0774357a
0,        390,        390,        1,   115200, 0xddd75a69
0,        391,        391,        1,   115200, 0x6d054339
0,        392,        392,        1,   115200, 0xd0995428
0,        393,        393,        1,   115200, 0x607a37eb
0,        394,        394,        1,   115200, 0xa704399c
0,        395,        395,        1,   115200, 0x0d7ff8b8
0,        396,        396,        1,   115200, 0x5b20fd4e
0,        397,        397,        1,   115200, 0x7cbad667
0,        398,        398,        1,   115200, 0xe217d35f
0,        399,        399,        1,   115200, 0x3ff6d303
0,        400,        400,        1,   115200, 0x5aa4c0e4
0,        401,        401,        1,   115200, 0x2d779d91
0,        402,        402,        1,   115200, 0x7097a25d
0,        403,        403,        1,   115200, 0x57c5809d
0,        404,        404,        1,   115200, 0x0fe0997e
0,        405,        405,        1,   115200, 0xd81d75a9
0,        406,        406,        1,   115200, 0x30a87cc0
0,        407,        407,        1,   115200, 0x22a971b6
0,        408,        408,        1,   115200, 0x9f849351
0,        409,        409,        1,   115200, 0xa1218894
0,        410,        410,        1,   115200, 0xefdd92a8
0,        411,        411,        1,   115200, 0xe0559201
0,        412,        412,        1,   115200, 0x07ebade6
0,        413,        413,        1,   115200, 0xe0c2c425
0,        414,        414,        1,   115200, 0x92159752
0,        415,        415,        1,   115200, 0x048fbe24
0,        416,        416,        1,   115200, 0x8a051ae9
0,        417,        417,        1,   115200, 0xed466ff3
0,        418,        418,        1,   115200, 0x11157da7
0,        419,        419,        1,   115200, 0x1f958850
0,        420,        420,        1,   115200, 0x1e488948
0,        421,        421,        1,   115200, 0x8c538e13
0,        422,        422,        1,   115200, 0x26d188b1
0,        423,        423,        1,   115200, 0x903b88e8
0,        424,        424,        1,   115200, 0x04ed7882
0,        425,        425,        1,   115200, 0x58d17772
0,        426,        426,        1,   115200, 0x37c67d8c
0,        427,        427,        1,   115200, 0x6c2677b4
0,        428,        428,        1,   115200, 0xc0a763ba
0,        429,        429,        1,   115200, 0xce242e3c
0,        430,        430,        1,   115200, 0xcd0c26d9
0,        431,        431,        1,   115200, 0x4cf81d8a
0,        432,        432,        1,   115200, 0xb5a61995
0,        433,        433,        1,   115200, 0xb4bb1276
0,        434,        434,        1,   115200, 0x085210a6
0,        435,        435,        1,   115200, 0x4cf215b4
0,        436,        436,        1,   115200, 0xe78d0f4b
0,        437,        437,        1,   115200, 0x52bc0f3c
0,        438,        438,        1,   115200, 0x8c50033d
0,        439,        439,        1,   115200, 0x0147f6b5
0,        440,        440,        1,   115200, 0x5da1e9f2
0,        441,        441,        1,   115200, 0xf5fce75b
0,        442,        442,        1,   115200, 0x90aee4e5
0,        443,        443,        1,   115200, 0xd73ae879
0,        444,        444,        1,   115200, 0xb578f62a
0,        445,        445,        1,   115200, 0x9ebcf6dd
0,        446,        446,        1,   115200, 0x7a3cf909
0,        447,        447,        1,   115200, 0x7240f4b6
0,        448,        448,        1,   115200, 0x55a9ffcd
0,        449,        449,        1,   115200, 0x95c7fd1b
0,        450,        450,        1,   115200, 0x40e3f3c4
0,        451,        451,        1,   115200, 0x2059e762
0,        452,        452,        1,   115200, 0xa0bee25d
0,        453,        453,        1,   115200, 0xedf9e470
0,        454,        454,        1,   115200, 0x83a9e2b0
0,        455,        455,        1,   115200, 0xf420e78e
0,        456,        456,        1,   115200, 0x5512e1ad
0,        457,        457,        1,   115200, 0xca18e192
0,        458,        458,        1,   115200, 0x46d5d6cb
0,        459,        459,        1,   115200, 0x40c7c6bc
0,        460,        460,        1,   115200, 0x45e4d06b
0,        461,        461,        1,   115200, 0xeefffb82
0,        462,        462,        1,   115200, 0x6f9a1394
0,        463,        463,        1,   115200, 0xec521ebc
0,        464,        464,        1,   115200, 0x8b632329
0,        465,        465,        1,   115200, 0x858732ba
0,        466,        466,        1,   115200, 0x1f364406
0,        467,        467,        1,   115200, 0xf6870af0
0,        468,        468,        1,   115200, 0x8738d586
0,        469,        469,        1,   115200, 0x52761588
0,        470,        470,        1,   115200, 0xc1c8593d
0,        471,        471,        1,   115200, 0x88a88938
0,        472,        472,        1,   115200, 0x4a01ccf5
0,        473,        473,        1,   115200, 0x2d990bde
0,        474,        474,        1,   115200, 0x2dc9bd2b
0,        475,        475,        1,   115200, 0xc1599b9b
0,        476,        476,        1,   115200, 0xce621632
0,        477,        477,        1,   115200, 0xbe027871
0,        478,        478,        1,   115200, 0xf48f84a8
0,        479,        479,        1,   115200, 0x6a240689
0,        480,        480,        1,   115200, 0xfb90504d
0,        481,        481,        1,   115200, 0x1a5512ec
0,        482,        482,        1,   115200, 0x5f124c22
0,        483,        483,        1,   115200, 0x2ea3180e
0,        484,        484,        1,   115200, 0x2519e60e
0,        485,        485,        1,   115200, 0xe240f88d
0,        486,        486,        1,   115200, 0xac9209d8
0,        487,        487,        1,   115200, 0x926fc3b8
0,        488,        488,        1,   115200, 0xa5cdc217
0,        489,        489,        1,   115200, 0x4d52bfcc
0,        490,        490,        1,   115200, 0x2ce6bedf
0,        491,        491,        1,   115200, 0x19e4cd0d
0,        492,        492,        1,   115200, 0x1cc7cb5c
0,        493,        493,        1,   115200, 0x74facbbc
0,        494,        494,        1,   115200, 0xb771cc31
0,        495,        495,        1,   115200, 0x6aabc273
0,        496,        496,        1,   115200, 0x0308b854
0,        497,        497,        1,   115200, 0xa70a1019
0,        510,        510,        1,   115200, 0x59790ff3
0,        512,        512,        1,   115200, 0x0e7110b5
